<svg width="81" height="20" viewBox="0 0 81 20" fill="none" xmlns="http://www.w3.org/2000/svg">
<path d="M10.8973 14.639C10.8973 14.2914 10.8441 13.9795 10.7376 13.7032C10.6401 13.418 10.4538 13.1595 10.1788 12.9278C9.90383 12.6872 9.51797 12.451 9.02122 12.2193C8.52448 11.9875 7.88137 11.7469 7.0919 11.4973C6.21373 11.2121 5.37991 10.8913 4.59044 10.5348C3.80985 10.1783 3.11795 9.76381 2.51477 9.29144C1.92045 8.81016 1.45031 8.25312 1.10437 7.62032C0.767292 6.98752 0.598754 6.25223 0.598754 5.41444C0.598754 4.60339 0.776162 3.86809 1.13098 3.20856C1.4858 2.54011 1.98254 1.9697 2.62121 1.49733C3.25988 1.01604 4.01387 0.646168 4.88317 0.387701C5.76134 0.129234 6.72378 0 7.77049 0C9.19863 0 10.4449 0.258467 11.5094 0.775401C12.5738 1.29234 13.3988 2.00089 13.9842 2.90107C14.5785 3.80125 14.8757 4.83066 14.8757 5.98931H10.9106C10.9106 5.41889 10.7909 4.91979 10.5514 4.49198C10.3207 4.05526 9.96592 3.71212 9.48692 3.46257C9.01679 3.21301 8.42247 3.08824 7.70396 3.08824C7.01207 3.08824 6.43549 3.19519 5.97423 3.40909C5.51297 3.61408 5.16702 3.89483 4.93639 4.25134C4.70576 4.59893 4.59044 4.99109 4.59044 5.42781C4.59044 5.75758 4.67028 6.05615 4.82995 6.32353C4.99848 6.59091 5.24686 6.84046 5.57506 7.07219C5.90327 7.30392 6.30687 7.52228 6.78587 7.72727C7.26488 7.93226 7.81928 8.1328 8.44908 8.32888C9.50466 8.64973 10.4316 9.0107 11.23 9.41177C12.0372 9.81283 12.7113 10.2629 13.2524 10.762C13.7935 11.2611 14.2015 11.8271 14.4765 12.4599C14.7515 13.0927 14.889 13.8102 14.889 14.6123C14.889 15.459 14.7249 16.2166 14.3967 16.885C14.0685 17.5535 13.5939 18.1194 12.973 18.5829C12.3521 19.0463 11.6114 19.3984 10.751 19.639C9.89052 19.8797 8.92808 20 7.86363 20C6.90563 20 5.96093 19.8752 5.02953 19.6257C4.09814 19.3672 3.25101 18.9795 2.48815 18.4626C1.73417 17.9456 1.13098 17.2861 0.678587 16.484C0.226196 15.6818 0 14.7326 0 13.6364H4.005C4.005 14.2424 4.09814 14.7549 4.28442 15.1738C4.47069 15.5927 4.73237 15.9314 5.06945 16.1898C5.41539 16.4483 5.82343 16.6355 6.29357 16.7513C6.77257 16.8672 7.29592 16.9251 7.86363 16.9251C8.55552 16.9251 9.12323 16.8271 9.56675 16.631C10.0191 16.4349 10.3518 16.1631 10.5647 15.8155C10.7864 15.4679 10.8973 15.0758 10.8973 14.639Z" fill="#6290E9"/>
<path d="M16.2068 12.6471V12.3663C16.2068 11.3057 16.3576 10.3298 16.6592 9.4385C16.9608 8.53832 17.3999 7.75847 17.9764 7.09893C18.553 6.43939 19.2627 5.92692 20.1054 5.5615C20.948 5.18717 21.9149 5 23.006 5C24.097 5 25.0684 5.18717 25.9199 5.5615C26.7715 5.92692 27.4855 6.43939 28.0621 7.09893C28.6476 7.75847 29.0911 8.53832 29.3927 9.4385C29.6943 10.3298 29.8451 11.3057 29.8451 12.3663V12.6471C29.8451 13.6988 29.6943 14.6747 29.3927 15.5749C29.0911 16.4661 28.6476 17.246 28.0621 17.9144C27.4855 18.574 26.7759 19.0865 25.9332 19.4519C25.0905 19.8173 24.1237 20 23.0326 20C21.9415 20 20.9702 19.8173 20.1187 19.4519C19.276 19.0865 18.5619 18.574 17.9764 17.9144C17.3999 17.246 16.9608 16.4661 16.6592 15.5749C16.3576 14.6747 16.2068 13.6988 16.2068 12.6471ZM20.0388 12.3663V12.6471C20.0388 13.2531 20.092 13.8191 20.1985 14.3449C20.3049 14.8708 20.4735 15.3342 20.7041 15.7353C20.9436 16.1275 21.2541 16.4349 21.6355 16.6578C22.0169 16.8806 22.4826 16.992 23.0326 16.992C23.5648 16.992 24.0216 16.8806 24.4031 16.6578C24.7845 16.4349 25.0905 16.1275 25.3212 15.7353C25.5518 15.3342 25.7203 14.8708 25.8268 14.3449C25.9421 13.8191 25.9997 13.2531 25.9997 12.6471V12.3663C25.9997 11.7781 25.9421 11.2255 25.8268 10.7086C25.7203 10.1827 25.5474 9.71925 25.3079 9.31818C25.0772 8.9082 24.7712 8.58734 24.3898 8.35561C24.0083 8.12389 23.5471 8.00802 23.006 8.00802C22.4649 8.00802 22.0036 8.12389 21.6222 8.35561C21.2496 8.58734 20.9436 8.9082 20.7041 9.31818C20.4735 9.71925 20.3049 10.1827 20.1985 10.7086C20.092 11.2255 20.0388 11.7781 20.0388 12.3663Z" fill="#6290E9"/>
<path d="M34.5558 0.26738L38.6007 9.14439L42.6456 0.26738H46.9966L40.6232 12.6471V19.7326H36.5783V12.6471L30.1916 0.26738H34.5558Z" fill="#6290E9"/>
<path d="M63.7356 9.54545V10.4679C63.7356 11.9474 63.536 13.2754 63.1368 14.4519C62.7377 15.6283 62.1744 16.631 61.447 17.4599C60.7197 18.2799 59.8503 18.9082 58.8391 19.3449C57.8368 19.7816 56.7235 20 55.4994 20C54.2842 20 53.1709 19.7816 52.1597 19.3449C51.1573 18.9082 50.288 18.2799 49.5518 17.4599C48.8155 16.631 48.2434 15.6283 47.8354 14.4519C47.4362 13.2754 47.2366 11.9474 47.2366 10.4679V9.54545C47.2366 8.05704 47.4362 6.72906 47.8354 5.5615C48.2345 4.38503 48.7978 3.38235 49.5252 2.55348C50.2614 1.7246 51.1307 1.0918 52.1331 0.65508C53.1443 0.21836 54.2575 0 55.4728 0C56.6969 0 57.8102 0.21836 58.8125 0.65508C59.8237 1.0918 60.693 1.7246 61.4204 2.55348C62.1567 3.38235 62.7244 4.38503 63.1235 5.5615C63.5316 6.72906 63.7356 8.05704 63.7356 9.54545ZM59.704 10.4679V9.51872C59.704 8.48485 59.6108 7.57576 59.4246 6.79144C59.2383 6.00713 58.9633 5.34759 58.5996 4.81283C58.2359 4.27807 57.7924 3.87701 57.2691 3.60963C56.7457 3.33333 56.1469 3.19519 55.4728 3.19519C54.7986 3.19519 54.1999 3.33333 53.6765 3.60963C53.162 3.87701 52.723 4.27807 52.3593 4.81283C52.0045 5.34759 51.7339 6.00713 51.5476 6.79144C51.3614 7.57576 51.2682 8.48485 51.2682 9.51872V10.4679C51.2682 11.4929 51.3614 12.402 51.5476 13.1952C51.7339 13.9795 52.0089 14.6435 52.3726 15.1872C52.7363 15.7219 53.1798 16.1275 53.7031 16.4037C54.2265 16.68 54.8253 16.8182 55.4994 16.8182C56.1736 16.8182 56.7723 16.68 57.2957 16.4037C57.819 16.1275 58.2581 15.7219 58.6129 15.1872C58.9677 14.6435 59.2383 13.9795 59.4246 13.1952C59.6108 12.402 59.704 11.4929 59.704 10.4679Z" fill="#6290E9"/>
<path d="M76.7624 0.26738H80.7407V13.1283C80.7407 14.6257 80.4214 15.8868 79.7827 16.9118C79.1529 17.9367 78.2792 18.7077 77.1615 19.2246C76.0527 19.7415 74.7754 20 73.3295 20C71.8836 20 70.5974 19.7415 69.4709 19.2246C68.3532 18.7077 67.475 17.9367 66.8363 16.9118C66.2065 15.8868 65.8916 14.6257 65.8916 13.1283V0.26738H69.8833V13.1283C69.8833 14.0018 70.0208 14.7148 70.2958 15.2674C70.5708 15.82 70.9655 16.2255 71.48 16.484C72.0034 16.7424 72.6199 16.8717 73.3295 16.8717C74.0569 16.8717 74.6734 16.7424 75.179 16.484C75.6935 16.2255 76.0838 15.82 76.3499 15.2674C76.6249 14.7148 76.7624 14.0018 76.7624 13.1283V0.26738Z" fill="#6290E9"/>
</svg>
