<svg width="21" height="21" viewBox="0 0 21 21" fill="none" xmlns="http://www.w3.org/2000/svg">
<circle cx="10.5" cy="10.5" r="10" fill="white" stroke="#D5D5D5"/>
<path d="M11.6657 5.04004L11.461 12.5903H9.53955L9.32955 5.04004H11.6657ZM10.5003 15.96C10.1538 15.96 9.85629 15.8372 9.6078 15.5915C9.3593 15.3423 9.23681 15.0439 9.24031 14.6964C9.23681 14.3524 9.3593 14.0576 9.6078 13.8118C9.85629 13.5661 10.1538 13.4433 10.5003 13.4433C10.8328 13.4433 11.125 13.5661 11.377 13.8118C11.629 14.0576 11.7567 14.3524 11.7602 14.6964C11.7567 14.9281 11.6955 15.1404 11.5765 15.3335C11.461 15.523 11.3087 15.6757 11.1198 15.7916C10.9308 15.9039 10.7243 15.96 10.5003 15.96Z" fill="#484848"/>
</svg>
