<svg width="105" height="87" viewBox="0 0 105 87" fill="none" xmlns="http://www.w3.org/2000/svg">
<path d="M102.595 86.7529C101.829 86.7529 101.174 86.1517 101.099 85.3465L99.4145 67.4359C99.404 67.3331 99.4055 67.2303 99.4145 67.1259L100.774 53.3861L101.087 44.2268C101.139 42.7005 100.605 41.2536 99.5831 40.1525C98.5597 39.0514 97.1841 38.4409 95.7077 38.4347L91.0316 38.416L73.131 43.6007C72.4132 43.811 71.6576 43.4418 71.3521 42.7394L65.4224 29.0666C65.2297 28.6227 65.2478 28.1135 65.4721 27.6867L66.3118 26.0841L65.0476 20.4072C64.8821 19.6643 64.253 19.1441 63.5155 19.1441H58.8756C58.4978 19.1441 58.2886 19.3762 58.1968 19.5148C58.1231 19.6269 57.9681 19.9275 58.1126 20.3044L60.185 25.7352C60.3114 26.0654 60.3234 26.4314 60.2211 26.7725L59.6687 28.5994L65.4961 46.5147C66.0741 48.2933 67.6814 49.5315 69.4919 49.5953L85.1591 50.1498C85.9898 50.1794 86.64 50.8989 86.6114 51.7602C86.5828 52.6183 85.9026 53.2989 85.0552 53.2631L69.3926 52.7118C66.3344 52.6043 63.6224 50.5142 62.6456 47.5114L56.6632 29.1165C56.5624 28.805 56.5579 28.4686 56.6527 28.1555L57.1915 26.3707L55.3132 21.4507C54.8467 20.2297 54.9957 18.8529 55.7091 17.7658C56.4239 16.6802 57.6069 16.0308 58.8756 16.0308H63.5155C65.6632 16.0308 67.4993 17.5431 67.9809 19.7079L69.373 25.958C69.4558 26.3286 69.4031 26.7164 69.2286 27.0497L68.473 28.4935L73.5675 40.2397L90.4221 35.3587C90.556 35.3198 90.6825 35.3089 90.833 35.3011L95.7182 35.3198C98.0164 35.3291 100.16 36.2791 101.752 37.9939C103.344 39.7086 104.176 41.9607 104.094 44.3374L103.775 53.5995L102.425 67.2879L104.094 85.0443C104.175 85.8994 103.568 86.6625 102.742 86.7451C102.692 86.7513 102.643 86.7529 102.595 86.7529Z" fill="white"/>
<path d="M80.9269 86.7528C80.1112 86.7528 79.4415 86.0784 79.4234 85.2296L78.7055 52.0763C78.6859 51.2166 79.3451 50.5033 80.1759 50.4846C80.9991 50.4316 81.696 51.1465 81.714 52.0062L82.4319 85.1595C82.4515 86.0193 81.7923 86.7326 80.9615 86.7513C80.9495 86.7528 80.9389 86.7528 80.9269 86.7528Z" fill="white"/>
<path d="M15.9949 85.3995C14.3905 85.3995 12.7862 84.7905 11.5355 83.571L3.68387 75.9131C1.31047 73.5987 0.275027 70.2393 0.913152 66.9297L3.97886 51.0406C5.18286 44.8015 10.5181 40.2039 16.6661 40.1089L48.4534 39.6199L56.5112 25.4471C56.9326 24.7058 57.8567 24.4581 58.5716 24.8942C59.288 25.3303 59.5273 26.285 59.1059 27.0264L50.6206 41.9545C50.3542 42.4233 49.8711 42.7145 49.3459 42.7223L16.7127 43.2238C11.9705 43.297 7.85727 46.8402 6.92868 51.6512L3.86448 67.5387C3.43103 69.7892 4.13538 72.0724 5.74875 73.6454L13.6004 81.3034C14.9413 82.6132 17.0469 82.6132 18.3878 81.3049C19.7167 80.0107 19.8552 77.8521 18.7024 76.3896L11.9539 67.8237C11.6333 67.4172 11.5325 66.869 11.686 66.369L14.8044 56.1958C15.0557 55.375 15.903 54.9249 16.6932 55.1819C17.4848 55.442 17.9243 56.3173 17.6729 57.1365L14.7999 66.5076L21.0336 74.4226C23.1798 77.1465 22.9224 81.1663 20.4482 83.5741C19.202 84.7905 17.5977 85.3995 15.9949 85.3995Z" fill="white"/>
<path d="M39.6477 86.7528C39.6236 86.7528 39.601 86.7528 39.577 86.7513C38.7462 86.7123 38.1051 85.9819 38.1427 85.1237L39.5393 53.8907C39.5785 53.0326 40.2647 52.4002 41.1121 52.4065C41.9428 52.4454 42.584 53.1759 42.5463 54.034L41.1497 85.267C41.1121 86.1018 40.4469 86.7528 39.6477 86.7528Z" fill="white"/>
<path d="M40.9573 57.4604C40.3387 57.4604 39.7608 57.0633 39.5411 56.4263C39.2612 55.6164 39.6675 54.7255 40.4516 54.4358L53.795 49.4972L59.3004 37.5189C59.657 36.7417 60.5555 36.4115 61.3065 36.7822C62.0575 37.1513 62.3751 38.0811 62.0184 38.8583L56.2467 51.4175C56.0766 51.7897 55.7696 52.0763 55.3949 52.2149L41.466 57.3716C41.2959 57.4308 41.1259 57.4604 40.9573 57.4604Z" fill="white"/>
<path d="M90.8132 32.7998C84.9196 32.7998 80.8049 27.9375 80.8049 20.9757C80.8049 14.0139 84.9196 9.15311 90.8132 9.15311C96.7069 9.15311 100.822 14.0155 100.822 20.9757C100.822 27.9375 96.7069 32.7998 90.8132 32.7998ZM90.8132 12.268C85.6481 12.268 83.815 16.959 83.815 20.9757C83.815 24.9939 85.6481 29.6849 90.8132 29.6849C95.9784 29.6849 97.8115 24.9939 97.8115 20.9757C97.8115 16.959 95.9784 12.268 90.8132 12.268Z" fill="white"/>
<path d="M30.0213 38.0609C24.1276 38.0609 20.0129 33.1985 20.0129 26.2368C20.0129 19.275 24.1276 14.4142 30.0213 14.4142C35.9149 14.4142 40.0296 19.2765 40.0296 26.2368C40.0296 33.1985 35.9134 38.0609 30.0213 38.0609ZM30.0213 17.5291C24.8561 17.5291 23.023 22.2201 23.023 26.2368C23.023 30.255 24.8561 34.946 30.0213 34.946C35.1864 34.946 37.0196 30.255 37.0196 26.2368C37.0196 22.2201 35.1864 17.5291 30.0213 17.5291Z" fill="white"/>
<path d="M61.0607 10.9021C60.2299 10.9021 59.5557 10.2044 59.5557 9.34468V1.55745C59.5557 0.697736 60.2299 0 61.0607 0C61.8914 0 62.5657 0.697736 62.5657 1.55745V9.34468C62.5657 10.2044 61.8929 10.9021 61.0607 10.9021Z" fill="white"/>
<path d="M50.5251 15.5745C50.1398 15.5745 49.7545 15.4218 49.4611 15.1181L44.1393 9.61101C43.5509 9.00205 43.5509 8.01774 44.1393 7.40878C44.7278 6.79982 45.679 6.79982 46.2674 7.40878L51.5891 12.9159C52.1776 13.5249 52.1776 14.5092 51.5891 15.1181C51.2957 15.4218 50.9104 15.5745 50.5251 15.5745Z" fill="white"/>
<path d="M70.7901 15.5745C70.4048 15.5745 70.0195 15.4218 69.726 15.1181C69.1376 14.5092 69.1376 13.5249 69.726 12.9159L75.0477 7.40878C75.6362 6.79982 76.5874 6.79982 77.1758 7.40878C77.7643 8.01774 77.7643 9.00205 77.1758 9.61101L71.8541 15.1181C71.5591 15.4218 71.1738 15.5745 70.7901 15.5745Z" fill="white"/>
</svg>
