<svg width="124" height="170" viewBox="0 0 124 170" fill="none" xmlns="http://www.w3.org/2000/svg">
<path d="M64.3509 169.998C62.9283 169.998 61.7783 168.848 61.7783 167.425V131.075C61.7783 129.653 62.9283 128.503 64.3509 128.503C65.7735 128.503 66.9234 129.653 66.9234 131.075V167.428C66.9234 168.848 65.7735 169.998 64.3509 169.998Z" fill="white"/>
<path d="M105.568 169.998C104.146 169.998 102.996 168.848 102.996 167.425V144.272C102.996 142.85 104.146 141.7 105.568 141.7C106.991 141.7 108.141 142.85 108.141 144.272V167.425C108.141 168.848 106.988 169.998 105.568 169.998Z" fill="white"/>
<path d="M105.568 108.579C104.146 108.579 102.996 107.429 102.996 106.006V78.1302C102.996 76.7102 104.146 75.5577 105.568 75.5577H107.858C109.28 75.5577 110.43 76.7102 110.43 78.1302C110.43 79.455 109.427 80.5458 108.141 80.6873V106.009C108.141 107.429 106.988 108.579 105.568 108.579Z" fill="white"/>
<path d="M84.9598 169.998C83.5371 169.998 82.3872 168.848 82.3872 167.425V112.473C82.3872 111.051 83.5371 109.901 84.9598 109.901C86.3824 109.901 87.5323 111.051 87.5323 112.473V167.425C87.5323 168.848 86.3824 169.998 84.9598 169.998Z" fill="white"/>
<path d="M119.303 115.046C117.881 115.046 116.731 113.896 116.731 112.473V71.2616C116.731 56.8323 107.223 46.357 94.1179 46.357H71.2196C71.2145 46.357 71.2119 46.357 71.2067 46.357C60.9294 46.357 58.8276 47.8208 53.7519 51.358C52.5891 52.1735 50.9839 51.8828 50.1709 50.7174C49.3606 49.5521 49.6461 47.9468 50.8115 47.1365C56.7052 43.0281 59.7949 41.2119 71.2067 41.2119C71.2119 41.2119 71.2145 41.2119 71.2196 41.2119H94.1179C109.942 41.2119 121.876 54.1286 121.876 71.2616V112.476C121.876 113.896 120.726 115.046 119.303 115.046Z" fill="white"/>
<path d="M84.9596 37.1988C75.3562 37.1988 68.647 29.5507 68.647 18.5995C68.647 7.64823 75.3536 0.00012207 84.9596 0.00012207C94.5603 0.00012207 101.27 7.64823 101.27 18.5995C101.27 29.5507 94.5603 37.1988 84.9596 37.1988ZM84.9596 5.14259C76.7171 5.14259 73.7921 12.3894 73.7921 18.5969C73.7921 24.8044 76.7171 32.0512 84.9596 32.0512C93.1995 32.0512 96.1245 24.8044 96.1245 18.5969C96.1245 12.3894 93.1995 5.14259 84.9596 5.14259Z" fill="white"/>
<path d="M64.3507 124.207H59.7716C58.3489 124.207 57.199 123.057 57.199 121.634C57.199 120.212 58.3489 119.062 59.7716 119.062H61.7782V77.4356C61.7782 66.6104 52.7948 57.8073 41.7508 57.8073H27.4191C25.9553 57.8073 24.4967 58.0465 22.9557 58.3012C21.7234 58.5044 19.7734 59.0961 16.9951 60.0891C16.6169 60.2229 16.3802 60.2949 16.3417 60.3026C14.9396 60.6345 13.571 59.7727 13.2443 58.3912C12.9176 57.0072 13.7742 55.6232 15.1557 55.2965L15.2638 55.245C17.2472 54.535 20.1053 53.5549 21.9627 53.2513C23.7969 52.9478 25.5334 52.6622 27.4191 52.6622H41.7508C55.6323 52.6622 66.9233 63.7755 66.9233 77.4356V121.634C66.9233 123.054 65.7733 124.207 64.3507 124.207Z" fill="white"/>
<path d="M9.39829 124.207H4.81914C3.39652 124.207 2.24658 123.057 2.24658 121.634V77.4356C2.24658 76.4246 2.30832 75.4033 2.43438 74.3975C2.60931 72.9877 3.89559 71.9845 5.30278 72.162C6.71254 72.3369 7.71584 73.6206 7.53833 75.0303C7.44058 75.8175 7.38912 76.6201 7.38912 77.4356V119.062H9.39572C10.8183 119.062 11.9683 120.212 11.9683 121.634C11.9708 123.054 10.8209 124.207 9.39829 124.207Z" fill="white"/>
<path d="M16.2695 169.998C14.8469 169.998 13.6969 168.848 13.6969 167.425V87.5559C12.4081 87.4144 11.4048 86.3237 11.4048 84.9989C11.4048 83.5762 12.5547 82.4263 13.9773 82.4263H16.2695C17.6921 82.4263 18.842 83.5762 18.842 84.9989V167.428C18.842 168.848 17.6895 169.998 16.2695 169.998Z" fill="white"/>
<path d="M34.5862 169.998C33.1636 169.998 32.0137 168.848 32.0137 167.425V117.052C32.0137 115.63 33.1636 114.48 34.5862 114.48C36.0089 114.48 37.1588 115.63 37.1588 117.052V167.425C37.1588 168.848 36.0089 169.998 34.5862 169.998Z" fill="white"/>
<path d="M34.5864 48.6465C26.1998 48.6465 20.5659 42.0917 20.5659 32.3367C20.5659 22.5817 26.1998 16.0269 34.5864 16.0269C42.9729 16.0269 48.6068 22.5817 48.6068 32.3367C48.6068 42.0917 42.9729 48.6465 34.5864 48.6465ZM34.5864 21.1694C28.0418 21.1694 25.711 26.937 25.711 32.3342C25.711 37.7313 28.0418 43.4989 34.5864 43.4989C41.1309 43.4989 43.4617 37.7313 43.4617 32.3342C43.4617 26.9396 41.1309 21.1694 34.5864 21.1694Z" fill="white"/>
<path d="M52.9031 169.998C51.4805 169.998 50.3306 168.848 50.3306 167.425V84.9989C50.3306 83.5762 51.4805 82.4263 52.9031 82.4263H55.1953C56.6179 82.4263 57.7678 83.5762 57.7678 84.9989C57.7678 86.3263 56.7645 87.4144 55.4757 87.5559V167.428C55.4757 168.848 54.3257 169.998 52.9031 169.998Z" fill="white"/>
<path d="M8.79391 71.6938C6.9108 71.6938 5.04055 70.904 3.7234 69.3631L1.59333 66.86C0.44082 65.5094 -0.119997 63.7884 0.0214935 62.0159C0.162984 60.246 0.98363 58.6331 2.33422 57.4806L6.57637 53.861C7.93211 52.706 9.6763 52.1657 11.4231 52.2918C13.193 52.4333 14.8034 53.2565 15.9585 54.6071L18.0911 57.1076C20.4733 59.8987 20.1389 64.1074 17.3451 66.487L13.1081 70.1039C11.8578 71.1715 10.322 71.6938 8.79391 71.6938ZM10.8957 57.4163C10.5355 57.4163 10.196 57.5423 9.9207 57.7764C9.9207 57.7764 9.92069 57.7764 9.91812 57.7764L5.67598 61.396C5.37241 61.6583 5.18719 62.0236 5.15375 62.425C5.1203 62.8263 5.24893 63.2173 5.51133 63.5234L7.64141 66.0265C8.18165 66.6542 9.13606 66.7288 9.77149 66.1937L14.0085 62.5767C14.6439 62.0365 14.7185 61.0821 14.1783 60.4493L12.0456 57.9488C11.7832 57.6426 11.4179 57.4574 11.0166 57.424C10.9754 57.4188 10.9343 57.4163 10.8957 57.4163Z" fill="white"/>
<path d="M121.262 146.845H80.1009C78.6783 146.845 77.5283 145.695 77.5283 144.272V113.402C77.5283 111.979 78.6783 110.83 80.1009 110.83H121.262C122.684 110.83 123.834 111.979 123.834 113.402V144.272C123.834 145.695 122.684 146.845 121.262 146.845ZM82.6734 141.7H118.689V115.975H82.6734V141.7Z" fill="white"/>
</svg>
