<svg width="12" height="12" viewBox="0 0 12 12" fill="none" xmlns="http://www.w3.org/2000/svg">
<path fill-rule="evenodd" clip-rule="evenodd" d="M0.332022 0.332639C-0.110674 0.776158 -0.110674 1.49524 0.332021 1.93876L4.4425 6.05689L0.445967 10.0609C0.00327132 10.5044 0.00327133 11.2235 0.445967 11.667C0.888662 12.1105 1.60641 12.1105 2.04911 11.667L6.04564 7.66301L9.95087 11.5755C10.3936 12.019 11.1113 12.019 11.554 11.5755C11.9967 11.132 11.9967 10.4129 11.554 9.96938L7.64879 6.05689L11.668 2.03024C12.1107 1.58672 12.1107 0.867633 11.668 0.424115C11.2253 -0.0194043 10.5075 -0.0194046 10.0648 0.424114L6.04564 4.45077L1.93516 0.332639C1.49247 -0.11088 0.774717 -0.11088 0.332022 0.332639Z" fill="#C4C4C4"/>
</svg>
