<svg width="21" height="21" viewBox="0 0 21 21" fill="none" xmlns="http://www.w3.org/2000/svg">
<g clip-path="url(#clip0_4496_5562)">
<path fill-rule="evenodd" clip-rule="evenodd" d="M20.16 10.3089C20.16 9.59385 20.0941 8.90729 19.973 8.24731H10.2859V12.1464H15.8218C15.5834 13.4065 14.8586 14.4738 13.7694 15.1889V17.7177H17.0941C19.0379 15.9628 20.16 13.379 20.16 10.3089Z" fill="#4285F4"/>
<path fill-rule="evenodd" clip-rule="evenodd" d="M10.2859 20.16C13.0631 20.16 15.3916 19.257 17.0931 17.7176L13.7685 15.1889C12.847 15.7938 11.6696 16.1508 10.2849 16.1508C7.60566 16.1508 5.3382 14.3779 4.52909 11.9954H1.09399V14.6068C2.78683 17.9009 6.26457 20.16 10.2859 20.16Z" fill="#34A853"/>
<path fill-rule="evenodd" clip-rule="evenodd" d="M4.53006 11.9953C4.32464 11.3904 4.20739 10.7447 4.20739 10.08C4.20739 9.41524 4.32464 8.76952 4.53006 8.16462V5.55322H1.094C0.397289 6.914 0 8.4533 0 10.08C0 11.7066 0.397289 13.2459 1.094 14.6067L4.53006 11.9953Z" fill="#FBBC05"/>
<path fill-rule="evenodd" clip-rule="evenodd" d="M10.2859 4.00921C11.7956 4.00921 13.1522 4.5182 14.2181 5.51622L17.1687 2.62469C15.3867 0.998979 13.0582 0 10.2859 0C6.26457 0 2.78683 2.2591 1.09399 5.55326L4.53006 8.16466C5.33917 5.78211 7.60663 4.00921 10.2859 4.00921Z" fill="#EA4335"/>
</g>
<defs>
<clipPath id="clip0_4496_5562">
<rect width="20.16" height="20.16" fill="white"/>
</clipPath>
</defs>
</svg>
