<svg width="73" height="97" viewBox="0 0 73 97" fill="none" xmlns="http://www.w3.org/2000/svg">
<path d="M37.7935 97.0001C36.958 97.0001 36.2826 96.344 36.2826 95.5322V74.7912C36.2826 73.9794 36.958 73.3233 37.7935 73.3233C38.629 73.3233 39.3043 73.9794 39.3043 74.7912V95.5337C39.3043 96.344 38.629 97.0001 37.7935 97.0001Z" fill="white"/>
<path d="M62.0005 97.0001C61.165 97.0001 60.4896 96.3439 60.4896 95.5322V82.3213C60.4896 81.5096 61.165 80.8535 62.0005 80.8535C62.836 80.8535 63.5114 81.5096 63.5114 82.3213V95.5322C63.5114 96.3439 62.8345 97.0001 62.0005 97.0001Z" fill="white"/>
<path d="M62.0005 61.9546C61.165 61.9546 60.4896 61.2985 60.4896 60.4867V44.5808C60.4896 43.7706 61.165 43.113 62.0005 43.113H63.3452C64.1807 43.113 64.856 43.7706 64.856 44.5808C64.856 45.3368 64.2668 45.9592 63.5114 46.0399V60.4882C63.5114 61.2985 62.8345 61.9546 62.0005 61.9546Z" fill="white"/>
<path d="M49.8972 97.0001C49.0617 97.0001 48.3864 96.344 48.3864 95.5322V64.177C48.3864 63.3652 49.0617 62.7091 49.8972 62.7091C50.7327 62.7091 51.4081 63.3652 51.4081 64.177V95.5322C51.4081 96.344 50.7327 97.0001 49.8972 97.0001Z" fill="white"/>
<path d="M70.0672 65.6448C69.2317 65.6448 68.5563 64.9887 68.5563 64.177V40.6616C68.5563 32.4283 62.9722 26.4512 55.2758 26.4512H41.8275C41.8245 26.4512 41.823 26.4512 41.82 26.4512C35.784 26.4512 34.5496 27.2864 31.5687 29.3047C30.8858 29.77 29.943 29.6042 29.4656 28.9392C28.9896 28.2743 29.1573 27.3583 29.8418 26.8959C33.3032 24.5517 35.1177 23.5154 41.82 23.5154C41.823 23.5154 41.8245 23.5154 41.8275 23.5154H55.2758C64.5691 23.5154 71.5781 30.8856 71.5781 40.6616V64.1784C71.5781 64.9887 70.9027 65.6448 70.0672 65.6448Z" fill="white"/>
<path d="M49.8971 21.2255C44.257 21.2255 40.3167 16.8616 40.3167 10.6128C40.3167 4.36408 44.2555 9.15527e-05 49.8971 9.15527e-05C55.5357 9.15527e-05 59.476 4.36408 59.476 10.6128C59.476 16.8616 55.5357 21.2255 49.8971 21.2255ZM49.8971 2.93437C45.0563 2.93437 43.3384 7.06937 43.3384 10.6113C43.3384 14.1533 45.0563 18.2883 49.8971 18.2883C54.7364 18.2883 56.4543 14.1533 56.4543 10.6113C56.4543 7.06937 54.7364 2.93437 49.8971 2.93437Z" fill="white"/>
<path d="M37.7935 70.8719H35.1041C34.2686 70.8719 33.5932 70.2158 33.5932 69.4041C33.5932 68.5923 34.2686 67.9362 35.1041 67.9362H36.2826V44.1845C36.2826 38.0077 31.0066 32.9847 24.5205 32.9847H16.1034C15.2437 32.9847 14.387 33.1212 13.482 33.2665C12.7583 33.3825 11.6131 33.7201 9.98133 34.2867C9.75924 34.363 9.62024 34.4041 9.59757 34.4085C8.77415 34.5979 7.97036 34.1061 7.77848 33.3179C7.5866 32.5282 8.08972 31.7384 8.90106 31.552L8.96452 31.5227C10.1294 31.1175 11.808 30.5583 12.8988 30.3851C13.9761 30.2119 14.9959 30.0489 16.1034 30.0489H24.5205C32.6731 30.0489 39.3043 36.3901 39.3043 44.1845V69.4041C39.3043 70.2143 38.629 70.8719 37.7935 70.8719Z" fill="white"/>
<path d="M5.51968 70.8719H2.83033C1.99482 70.8719 1.31946 70.2158 1.31946 69.404V44.1845C1.31946 43.6076 1.35572 43.0249 1.42975 42.451C1.53249 41.6466 2.28793 41.0741 3.11437 41.1754C3.94233 41.2752 4.53157 42.0077 4.42732 42.8121C4.36991 43.2612 4.33969 43.7192 4.33969 44.1845V67.9362H5.51817C6.35368 67.9362 7.02904 68.5923 7.02904 69.404C7.03055 70.2143 6.35519 70.8719 5.51968 70.8719Z" fill="white"/>
<path d="M9.55518 97C8.71967 97 8.04431 96.3439 8.04431 95.5322V49.9591C7.28736 49.8784 6.69812 49.256 6.69812 48.5C6.69812 47.6883 7.37348 47.0322 8.20899 47.0322H9.55518C10.3907 47.0322 11.066 47.6883 11.066 48.5V95.5336C11.066 96.3439 10.3892 97 9.55518 97Z" fill="white"/>
<path d="M20.3126 97.0001C19.4771 97.0001 18.8018 96.3439 18.8018 95.5322V66.7898C18.8018 65.978 19.4771 65.3219 20.3126 65.3219C21.1481 65.3219 21.8235 65.978 21.8235 66.7898V95.5322C21.8235 96.3439 21.1481 97.0001 20.3126 97.0001Z" fill="white"/>
<path d="M20.3127 27.7576C15.3873 27.7576 12.0785 24.0174 12.0785 18.4512C12.0785 12.8851 15.3873 9.14493 20.3127 9.14493C25.2382 9.14493 28.547 12.8851 28.547 18.4512C28.547 24.0174 25.2382 27.7576 20.3127 27.7576ZM20.3127 12.0792C16.4691 12.0792 15.1002 15.3702 15.1002 18.4498C15.1002 21.5294 16.4691 24.8203 20.3127 24.8203C24.1564 24.8203 25.5252 21.5294 25.5252 18.4498C25.5252 15.3716 24.1564 12.0792 20.3127 12.0792Z" fill="white"/>
<path d="M31.0702 97C30.2347 97 29.5593 96.3439 29.5593 95.5322V48.5C29.5593 47.6883 30.2347 47.0322 31.0702 47.0322H32.4164C33.2519 47.0322 33.9273 47.6883 33.9273 48.5C33.9273 49.2575 33.338 49.8784 32.5811 49.9591V95.5336C32.5811 96.3439 31.9057 97 31.0702 97Z" fill="white"/>
<path d="M5.16469 40.9082C4.05874 40.9082 2.96033 40.4576 2.18677 39.5783L0.935766 38.1501C0.258895 37.3794 -0.0704747 36.3974 0.0126232 35.3861C0.0957211 34.3762 0.577689 33.4558 1.3709 32.7982L3.86232 30.7329C4.65855 30.0738 5.68292 29.7656 6.70881 29.8375C7.74829 29.9182 8.69409 30.388 9.37247 31.1586L10.625 32.5854C12.0241 34.178 11.8276 36.5794 10.1868 37.9372L7.69843 40.0011C6.96414 40.6102 6.06215 40.9082 5.16469 40.9082ZM6.39908 32.7615C6.18755 32.7615 5.98812 32.8334 5.82646 32.967C5.82646 32.967 5.82646 32.967 5.82495 32.967L3.33352 35.0323C3.15524 35.182 3.04645 35.3905 3.02681 35.6195C3.00717 35.8484 3.08271 36.0716 3.23682 36.2462L4.48782 37.6745C4.80511 38.0326 5.36564 38.0752 5.73883 37.7699L8.22723 35.7061C8.60042 35.3978 8.64423 34.8532 8.32695 34.4921L7.07444 33.0654C6.92033 32.8907 6.70578 32.785 6.47009 32.7659C6.44591 32.763 6.42174 32.7615 6.39908 32.7615Z" fill="white"/>
<path d="M71.2174 83.7892H47.0435C46.208 83.7892 45.5326 83.1331 45.5326 82.3213V64.7069C45.5326 63.8951 46.208 63.239 47.0435 63.239H71.2174C72.0529 63.239 72.7283 63.8951 72.7283 64.7069V82.3213C72.7283 83.1331 72.0529 83.7892 71.2174 83.7892ZM48.5543 80.8535H69.7065V66.1747H48.5543V80.8535Z" fill="white"/>
</svg>
