<svg width="173" height="140" viewBox="0 0 173 140" fill="none" xmlns="http://www.w3.org/2000/svg">
<path d="M170.478 140C169.196 140 168.101 139.03 167.975 137.73L165.156 108.827C165.139 108.661 165.141 108.495 165.156 108.326L167.431 86.1535L167.954 71.3723C168.043 68.9092 167.148 66.5743 165.438 64.7973C163.726 63.0204 161.423 62.0351 158.953 62.0251L151.127 61.9949L121.169 70.3619C119.968 70.7012 118.704 70.1056 118.192 68.972L108.269 46.9071C107.946 46.1908 107.976 45.3689 108.352 44.6803L109.757 42.094L107.641 32.9328C107.364 31.7339 106.312 30.8944 105.077 30.8944H97.3123C96.6801 30.8944 96.33 31.2689 96.1763 31.4926C96.0529 31.6736 95.7935 32.1586 96.0353 32.7669L99.5035 41.531C99.7151 42.0639 99.7353 42.6545 99.564 43.2049L98.6396 46.1531L108.392 75.0645C109.359 77.9347 112.049 79.9329 115.079 80.0359L141.299 80.9307C142.689 80.9784 143.777 82.1396 143.73 83.5295C143.682 84.9144 142.543 86.0127 141.125 85.9549L114.913 85.0652C109.795 84.8918 105.256 81.5188 103.622 76.673L93.6098 46.9876C93.441 46.4849 93.4335 45.942 93.5921 45.4368L94.4938 42.5565L91.3505 34.6167C90.5697 32.6462 90.819 30.4244 92.0129 28.6701C93.2093 26.9183 95.189 25.8702 97.3123 25.8702H105.077C108.672 25.8702 111.744 28.3107 112.55 31.8043L114.88 41.8904C115.019 42.4886 114.931 43.1144 114.638 43.6523L113.374 45.9822L121.9 64.9381L150.107 57.0612C150.331 56.9983 150.543 56.9807 150.795 56.9682L158.97 56.9983C162.816 57.0134 166.403 58.5466 169.068 61.3138C171.733 64.081 173.125 67.7154 172.987 71.5508L172.453 86.4978L170.194 108.588L172.987 137.243C173.123 138.623 172.108 139.854 170.725 139.987C170.642 139.997 170.559 140 170.478 140Z" fill="white"/>
<path d="M134.216 140C132.851 140 131.73 138.912 131.7 137.542L130.499 84.0397C130.466 82.6523 131.569 81.5012 132.96 81.471C134.337 81.3856 135.503 82.5392 135.534 83.9266L136.735 137.429C136.768 138.816 135.665 139.967 134.274 139.997C134.254 140 134.237 140 134.216 140Z" fill="white"/>
<path d="M25.5494 137.816C22.8644 137.816 20.1795 136.833 18.0864 134.865L4.94635 122.507C0.974345 118.772 -0.758526 113.351 0.309406 108.01L5.44002 82.3683C7.45498 72.2997 16.3838 64.8803 26.6727 64.7269L79.8704 63.9377L93.3555 41.066C94.0608 39.8697 95.6073 39.47 96.8036 40.1738C98.0025 40.8775 98.403 42.4182 97.6978 43.6146L83.4973 67.7053C83.0515 68.4618 82.243 68.9318 81.364 68.9444L26.7508 69.7537C18.8144 69.8718 11.9307 75.5898 10.3767 83.3536L5.24859 108.993C4.52321 112.624 5.70196 116.309 8.40202 118.847L21.5421 131.206C23.7863 133.319 27.31 133.319 29.5541 131.208C31.7781 129.12 32.0099 125.636 30.0805 123.276L18.7866 109.452C18.2502 108.796 18.0814 107.912 18.3383 107.105L23.5571 90.6876C23.9777 89.3631 25.3957 88.6367 26.7181 89.0514C28.0429 89.4711 28.7784 90.8836 28.3577 92.2057L23.5495 107.329L33.982 120.102C37.5737 124.498 37.143 130.985 33.0022 134.87C30.9167 136.833 28.2318 137.816 25.5494 137.816Z" fill="white"/>
<path d="M65.1332 140C65.0929 140 65.0551 140 65.0148 139.997C63.6245 139.935 62.5515 138.756 62.6145 137.371L64.9518 86.9678C65.0173 85.5829 66.1658 84.5625 67.5839 84.5725C68.9742 84.6354 70.0472 85.8141 69.9842 87.199L67.6468 137.602C67.5839 138.949 66.4706 140 65.1332 140Z" fill="white"/>
<path d="M67.3248 92.7285C66.2896 92.7285 65.3224 92.0875 64.9547 91.0596C64.4862 89.7526 65.1662 88.315 66.4785 87.8475L88.8094 79.8776L98.0228 60.5472C98.6197 59.293 100.123 58.7602 101.38 59.3584C102.637 59.954 103.169 61.4545 102.572 62.7087L92.9123 82.9766C92.6277 83.5773 92.1139 84.0397 91.4867 84.2634L68.1761 92.5852C67.8915 92.6807 67.6069 92.7285 67.3248 92.7285Z" fill="white"/>
<path d="M150.762 52.9317C140.899 52.9317 134.013 45.0849 134.013 33.8501C134.013 22.6154 140.899 14.7711 150.762 14.7711C160.625 14.7711 167.512 22.6179 167.512 33.8501C167.512 45.0849 160.625 52.9317 150.762 52.9317ZM150.762 19.7979C142.118 19.7979 139.05 27.3681 139.05 33.8501C139.05 40.3346 142.118 47.9049 150.762 47.9049C159.406 47.9049 162.474 40.3346 162.474 33.8501C162.474 27.3681 159.406 19.7979 150.762 19.7979Z" fill="white"/>
<path d="M49.0238 61.4219C39.1606 61.4219 32.2744 53.5751 32.2744 42.3403C32.2744 31.1055 39.1606 23.2613 49.0238 23.2613C58.8871 23.2613 65.7732 31.108 65.7732 42.3403C65.7732 53.5751 58.8846 61.4219 49.0238 61.4219ZM49.0238 28.288C40.3796 28.288 37.3118 35.8583 37.3118 42.3403C37.3118 48.8248 40.3796 56.3951 49.0238 56.3951C57.668 56.3951 60.7358 48.8248 60.7358 42.3403C60.7358 35.8583 57.668 28.288 49.0238 28.288Z" fill="white"/>
<path d="M100.969 17.5936C99.5791 17.5936 98.4507 16.4676 98.4507 15.0802V2.51337C98.4507 1.12599 99.5791 0 100.969 0C102.36 0 103.488 1.12599 103.488 2.51337V15.0802C103.488 16.4676 102.362 17.5936 100.969 17.5936Z" fill="white"/>
<path d="M83.3386 25.1338C82.6938 25.1338 82.049 24.8874 81.5578 24.3973L72.6517 15.51C71.6669 14.5273 71.6669 12.9389 72.6517 11.9561C73.6365 10.9734 75.2283 10.9734 76.2131 11.9561L85.1193 20.8434C86.1041 21.8262 86.1041 23.4146 85.1193 24.3973C84.6282 24.8874 83.9834 25.1338 83.3386 25.1338Z" fill="white"/>
<path d="M117.253 25.1338C116.608 25.1338 115.964 24.8874 115.472 24.3973C114.488 23.4146 114.488 21.8262 115.472 20.8434L124.379 11.9561C125.363 10.9734 126.955 10.9734 127.94 11.9561C128.925 12.9389 128.925 14.5273 127.94 15.51L119.034 24.3973C118.54 24.8874 117.895 25.1338 117.253 25.1338Z" fill="white"/>
</svg>
