<svg width="18" height="18" viewBox="0 0 18 18" fill="none" xmlns="http://www.w3.org/2000/svg">
<path d="M13.9047 12.2361H13.0259L12.7144 11.9358C13.8046 10.6677 14.4609 9.02136 14.4609 7.23043C14.4609 3.23701 11.2239 0 7.23043 0C3.23701 0 0 3.23701 0 7.23043C0 11.2239 3.23701 14.4609 7.23043 14.4609C9.02136 14.4609 10.6677 13.8046 11.9358 12.7144L12.2361 13.0259V13.9047L16.3426 18L18 16.3426L13.9047 12.2361ZM7.23043 12.2361C4.46062 12.2361 2.22475 10.0002 2.22475 7.23043C2.22475 4.46062 4.46062 2.22475 7.23043 2.22475C10.0002 2.22475 12.2361 4.46062 12.2361 7.23043C12.2361 10.0002 10.0002 12.2361 7.23043 12.2361Z" fill="#A3A3A3"/>
</svg>
