<svg width="120" height="120" viewBox="0 0 120 120" fill="none" xmlns="http://www.w3.org/2000/svg">
<circle cx="60" cy="60" r="60" fill="white"/>
<circle cx="60" cy="60" r="59.5" stroke="#C4C4C4"/>
<mask id="mask0_6736_2339" style="mask-type:alpha" maskUnits="userSpaceOnUse" x="0" y="0" width="120" height="120">
<circle cx="60" cy="60" r="60" fill="#D9D9D9"/>
</mask>
<g mask="url(#mask0_6736_2339)">
<path d="M60.2762 75.3571C45.8654 75.3571 34.1367 63.6284 34.1367 49.2176C34.1367 34.8068 45.8654 23.0781 60.2762 23.0781C74.687 23.0781 86.4157 34.8068 86.4157 49.2176C86.4157 63.6284 74.687 75.3571 60.2762 75.3571Z" fill="#C4C4C4"/>
<path d="M60.2767 73.0826C47.116 73.0826 36.4102 62.3768 36.4102 49.2161C36.4102 36.0554 47.116 25.3496 60.2767 25.3496C73.4373 25.3496 84.1432 36.0554 84.1432 49.2161C84.1432 62.3768 73.4373 73.0826 60.2767 73.0826ZM60.2767 33.9302C51.8552 33.9302 44.9907 40.7833 44.9907 49.2161C44.9907 57.6489 51.8438 64.502 60.2767 64.502C68.7095 64.502 75.5626 57.6489 75.5626 49.2161C75.5626 40.7833 68.6981 33.9302 60.2767 33.9302Z" fill="#C4C4C4"/>
<path d="M95.9274 115.06C94.825 115.06 93.8476 114.253 93.6885 113.128C89.9153 88.0001 64.0599 84.7497 60.2754 84.4087C56.4795 84.7497 30.6355 87.9887 26.8623 113.128C26.7714 113.719 26.4532 114.265 25.9645 114.617C25.5667 114.912 25.1007 115.06 24.612 115.06C24.4984 115.06 24.3847 115.049 24.2711 115.037L15.7814 113.765C14.5426 113.583 13.6903 112.423 13.8721 111.185C19.4637 73.9075 59.4912 71.2935 59.9003 71.2708C59.9003 71.2708 60.2299 71.248 60.2754 71.248C60.3209 71.248 60.6732 71.2708 60.6732 71.2708C61.0482 71.2935 101.076 73.9075 106.667 111.185C106.849 112.423 105.997 113.583 104.758 113.765L96.2684 115.037C96.1547 115.049 96.0411 115.06 95.9274 115.06Z" fill="#C4C4C4"/>
<path d="M95.9391 112.79C84.9708 123.417 63.2647 127.579 60.0143 127.317C56.8094 127.579 29.5024 121.684 24.601 112.79L16.1113 111.517C21.4074 76.2056 59.6279 73.5575 60.0143 73.5348L60.2644 73.5234L60.5144 73.5348C60.9008 73.5575 99.1099 76.2056 104.417 111.517L95.9391 112.79Z" fill="#C4C4C4"/>
</g>
</svg>
