<svg width="161" height="176" viewBox="0 0 161 176" fill="none" xmlns="http://www.w3.org/2000/svg">
<path d="M161 102.344H131.711C131.605 62.0779 99.0105 29.4493 58.7594 29.2903V0C115.179 0.165594 160.887 45.8894 161 102.344Z" fill="url(#paint0_linear_6172_443)"/>
<path d="M58.4548 175.801C98.913 175.801 131.711 143.002 131.711 102.542C131.711 62.0827 98.913 29.2837 58.4548 29.2837C17.9966 29.2837 -14.8013 62.0827 -14.8013 102.542C-14.8013 143.002 17.9966 175.801 58.4548 175.801Z" fill="url(#paint1_linear_6172_443)"/>
<path d="M58.4548 176C17.952 176 -15 143.047 -15 102.542C-15 62.0382 17.952 29.0849 58.4548 29.0849C98.9576 29.0849 131.91 62.0382 131.91 102.542C131.91 143.047 98.9576 176 58.4548 176ZM58.4548 29.4824C18.1706 29.4824 -14.6026 62.2567 -14.6026 102.542C-14.6026 142.828 18.1706 175.603 58.4548 175.603C98.739 175.603 131.512 142.828 131.512 102.542C131.512 62.2567 98.739 29.4824 58.4548 29.4824Z" fill="url(#paint2_linear_6172_443)"/>
<path d="M75.4606 119.548C84.8526 110.156 84.8526 94.9276 75.4606 85.5352C66.0686 76.1428 50.8411 76.1429 41.4491 85.5352C32.0571 94.9276 32.0571 110.156 41.4491 119.548C50.8411 128.94 66.0686 128.94 75.4606 119.548Z" fill="white"/>
<defs>
<linearGradient id="paint0_linear_6172_443" x1="-14.9982" y1="88.0028" x2="160.995" y2="88.0028" gradientUnits="userSpaceOnUse">
<stop stop-color="#18B7F1"/>
<stop offset="1" stop-color="#185EF1"/>
</linearGradient>
<linearGradient id="paint1_linear_6172_443" x1="-14.9997" y1="87.9977" x2="160.999" y2="87.9977" gradientUnits="userSpaceOnUse">
<stop offset="0.00129175" stop-color="#D3FFFF"/>
<stop offset="1" stop-color="#B0DBDB"/>
</linearGradient>
<linearGradient id="paint2_linear_6172_443" x1="-15" y1="87.9977" x2="161" y2="87.9977" gradientUnits="userSpaceOnUse">
<stop offset="0.00256574" stop-color="#C5FFFF"/>
<stop offset="1" stop-color="#B3D6D6"/>
</linearGradient>
</defs>
</svg>
