<svg width="74" height="61" viewBox="0 0 74 61" fill="none" xmlns="http://www.w3.org/2000/svg">
<g clip-path="url(#clip0_6139_5661)">
<path d="M16.1302 60.4839C15.5831 60.1377 15.1442 59.6361 14.8726 59.0412L0.312311 27.3359C-0.465519 25.6362 0.257189 23.6194 1.92718 22.8255L49.4687 0.317165C49.9097 0.107814 50.3895 -0.00204399 50.8774 2.87986e-05C52.1778 2.87986e-05 53.3599 0.762814 53.9111 1.95881L60.7728 16.8974H70.6579C72.5035 16.8994 73.9979 18.4188 74.002 20.2926V55.275C74 57.1488 72.5035 58.6661 70.6579 58.6681H23.5696L19.315 60.6829C18.8741 60.8923 18.3943 61 17.9084 61C17.2796 61 16.6651 60.8218 16.1302 60.4839ZM70.6579 56.0564C71.0846 56.0564 71.4296 55.7061 71.4296 55.2729V20.2905C71.4296 19.8573 71.0846 19.507 70.6579 19.507H18.2024C17.7757 19.507 17.4307 19.8573 17.4307 20.2905V55.2729C17.4307 55.7061 17.7757 56.0564 18.2024 56.0564H70.6579ZM7.92116 37.7247L14.8604 52.8353V34.4394L7.92116 37.7247ZM5.12424 31.6328L6.83506 35.3576L14.8624 31.5582V27.0229L5.12424 31.6328ZM3.01532 25.1906C2.62947 25.373 2.46206 25.8394 2.64376 26.2311L4.03609 29.2657L14.8604 24.1418V20.2905C14.8604 20.0397 14.8869 19.7889 14.942 19.5443L3.01532 25.1906ZM57.935 16.8974L56.8591 14.5531L51.9084 16.8974H57.935ZM45.8246 16.8974L55.771 12.188L54.0602 8.46321L36.2456 16.8974H45.8246ZM30.1618 16.8974L52.9741 6.09609L51.5817 3.06153C51.4551 2.78585 51.1816 2.60967 50.8815 2.60967C50.7692 2.60967 50.6569 2.63454 50.5569 2.68221L20.5338 16.8974H30.1618ZM23.7962 49.5873C23.1001 49.5665 22.5468 48.9882 22.5468 48.2814C22.5468 47.5746 23.1001 46.9963 23.7962 46.9756H46.7167C47.4129 46.9963 47.9661 47.5746 47.9661 48.2814C47.9661 48.9882 47.4129 49.5665 46.7167 49.5873H23.7962ZM23.7962 42.7989C23.1001 42.7782 22.5468 42.1999 22.5468 41.493C22.5468 40.7862 23.1001 40.2079 23.7962 40.1872H35.9169C36.264 40.1768 36.6008 40.3095 36.8499 40.5561C37.099 40.8007 37.2398 41.1407 37.2398 41.493C37.2398 41.8454 37.099 42.1833 36.8499 42.4299C36.6008 42.6766 36.264 42.8093 35.9169 42.7989H23.7962ZM53.9234 35.9421V25.2383H65.354V35.9421H53.9234ZM56.4957 33.3304H62.7837V27.8479H56.4957V33.3304Z" fill="#484848"/>
</g>
<defs>
<clipPath id="clip0_6139_5661">
<rect width="74" height="61" fill="white"/>
</clipPath>
</defs>
</svg>
