<svg width="66" height="46" viewBox="0 0 66 46" fill="none" xmlns="http://www.w3.org/2000/svg">
<g clip-path="url(#clip0_6139_5665)">
<path d="M3.7297 46C1.67005 45.9977 0.00227838 44.3245 0 42.261V3.7367C0.00227838 1.67547 1.67005 0.00228265 3.7297 0H62.2703C64.3299 0.00228265 65.9977 1.67547 66.0023 3.7367V42.261C66 44.3245 64.3299 45.9954 62.2703 46H3.7297ZM2.86848 42.261C2.86848 42.7358 3.25352 43.1239 3.7297 43.1239H62.2703C62.7465 43.1239 63.1315 42.7358 63.1315 42.261V17.6997H2.86848V42.261ZM63.1315 14.8258V10.2993H2.86848V14.8258H63.1315ZM63.1315 7.42547V3.7367C63.1315 3.25963 62.7465 2.87386 62.2703 2.87386H3.7297C3.25352 2.87386 2.86848 3.25963 2.86848 3.7367V7.42318H63.1315V7.42547ZM8.30012 34.0777V23H42.0543V34.0777H8.30012ZM11.1686 31.2038H39.1835V25.8761H11.1686V31.2038ZM47.7434 32.9387C46.9664 32.9158 46.349 32.279 46.349 31.5006C46.349 30.7222 46.9664 30.0854 47.7434 30.0625H56.3534C57.1303 30.0854 57.7477 30.7222 57.7477 31.5006C57.7477 32.279 57.1303 32.9158 56.3534 32.9387H47.7434ZM47.7434 27.1887C46.9642 27.1704 46.3422 26.5313 46.3422 25.7506C46.3422 24.9699 46.9642 24.3331 47.7434 24.3125H56.3534C57.1326 24.3308 57.7523 24.9699 57.7523 25.7506C57.7523 26.5313 57.1303 27.1681 56.3534 27.1887H47.7434Z" fill="#6290E9"/>
</g>
<defs>
<clipPath id="clip0_6139_5665">
<rect width="66" height="46" fill="white"/>
</clipPath>
</defs>
</svg>
