<svg width="40" height="66" viewBox="0 0 40 66" fill="none" xmlns="http://www.w3.org/2000/svg">
<g clip-path="url(#clip0_6139_5663)">
<path d="M8.27511 66C3.70825 65.9955 0.00438068 62.1924 0 57.5032V8.49683C0.00438068 3.80761 3.70825 0.00449806 8.27511 0H31.7249C36.2939 0.00449806 39.9956 3.80761 40 8.49683V57.5009C39.9956 62.1924 36.2918 65.9933 31.7249 65.9978H8.27511V66ZM2.75764 57.5032C2.75764 59.0055 3.33808 60.4471 4.37411 61.5087C5.40795 62.5725 6.81196 63.1685 8.27511 63.1685H31.7249C33.188 63.1685 34.592 62.5725 35.6259 61.5087C36.6619 60.4471 37.2424 59.0055 37.2424 57.5032V56.228H2.75764V57.5032ZM2.75764 53.3942H37.2424V12.6058H2.75764V53.3942ZM2.75764 8.49683V9.77203H37.2424V8.49908C37.2424 5.37068 34.7717 2.83378 31.7249 2.83378H8.27511C6.81196 2.83378 5.40795 3.43202 4.37411 4.49356C3.34027 5.55285 2.75764 6.99448 2.75764 8.49683ZM13.2428 45.3224C10.9583 45.3202 9.10744 43.4198 9.10525 41.0718V32.0059C9.10744 29.6624 10.9583 27.7598 13.2428 27.7575H14.0707V24.926C14.0707 21.4827 16.7868 18.6939 20.1402 18.6939C23.4936 18.6939 26.2096 21.485 26.2096 24.926V27.7575H26.7616C29.0461 27.7598 30.8969 29.6624 30.8991 32.0059V41.0718C30.8969 43.4175 29.0461 45.3179 26.7616 45.3202L13.2428 45.3224ZM11.8629 32.0082V41.074C11.8629 41.4496 12.0074 41.8094 12.2659 42.0748C12.5244 42.3402 12.877 42.4909 13.2428 42.4909H26.7594C27.5216 42.4909 28.1393 41.8567 28.1393 41.074V32.0082C28.1393 31.6326 27.9947 31.2727 27.7363 31.0074C27.4778 30.742 27.1274 30.5935 26.7616 30.5935H13.2428C12.4806 30.5913 11.8629 31.2255 11.8629 32.0082ZM17.7965 22.524C17.1745 23.1605 16.824 24.0264 16.8262 24.9282V27.7598H23.4476V24.9282C23.4476 23.5541 22.6416 22.3126 21.404 21.7886C20.1665 21.2601 18.7449 21.5524 17.7965 22.524ZM16.8284 36.6817C16.8284 35.3637 17.6016 34.1762 18.7866 33.6725C19.9715 33.1687 21.3361 33.4476 22.2451 34.3787C23.1519 35.312 23.4235 36.7131 22.9329 37.9299C22.4422 39.1466 21.2857 39.9405 20.0022 39.9405C18.2477 39.9405 16.8284 38.4809 16.8284 36.6817ZM17.5183 7.79064C16.7692 7.77264 16.1713 7.14292 16.1713 6.37375C16.1713 5.60458 16.7692 4.9771 17.5183 4.95686H22.2079C22.578 4.94786 22.9394 5.09405 23.2045 5.35944C23.4717 5.62707 23.6206 5.99141 23.6206 6.37375C23.6206 6.75608 23.4695 7.12042 23.2045 7.38806C22.9394 7.65344 22.5802 7.79963 22.2079 7.79064H17.5183Z" fill="#484848"/>
</g>
<defs>
<clipPath id="clip0_6139_5663">
<rect width="40" height="66" fill="white"/>
</clipPath>
</defs>
</svg>
